<?xml version="1.0" encoding="utf-8"?>
<svg xmlns="http://www.w3.org/2000/svg" style="margin: auto; background: rgb(255,255,255); display: block; shape-rendering: auto;" width="280" height="250" preserveAspectRatio="xMidYMid">
<style type="text/css">
  text {
    text-anchor: middle; font-size: 164px; opacity: 0;
  }
</style>
<g style="transform-origin: 140px 125px; transform: scale(0.425);">
<g transform="translate(140,125)">
  <g transform="translate(0,0)"><g class="path" style="transform: scale(0.91); transform-origin: -251.44px 1.07017px; animation: 1s linear -0.612857s infinite normal forwards running breath-adb716ac-c6d7-42f6-8c3a-6ae5def9395a;"><path d="M8.24-24.88L8.24-24.88L8.24-24.88Q8.24-17.28 16.32-14.72L16.32-14.72L16.32-14.72Q19.52-13.76 21.64-13.64L21.64-13.64L21.64-13.64Q23.76-13.52 23.92-13.68L23.92-13.68L24-12L23.52-12L23.52-12Q14.56-12 9.92-16.48L9.92-16.48L9.92-16.48Q6.56-19.60 6.56-24.88L6.56-24.88L6.56-24.88Q6.56-36.24 18.60-42.48L18.60-42.48L18.60-42.48Q30.64-48.72 52.48-48.72L52.48-48.72L52.48-48.72Q63.92-48.72 68.56-46.24L68.56-46.24L68.56-46.24Q73.20-43.76 73.20-39.12L73.20-39.12L73.20-39.12Q73.20-35.44 70.88-31.64L70.88-31.64L70.88-31.64Q68.56-27.84 65.28-23.76L65.28-23.76L65.28-23.76Q62-19.68 60.80-16.88L60.80-16.88L65.04-16.88L64.88-15.44L60.24-15.44L60.24-15.44Q59.60-13.36 59.60-11.68L59.60-11.68L57.92-11.68L57.92-11.68Q57.92-13.60 58.40-15.44L58.40-15.44L48.24-15.44L46.56-6.08L46.56-6.08Q44.88 2.56 38.48 7.48L38.48 7.48L38.48 7.48Q32.08 12.40 24.72 12.40L24.72 12.40L24.72 10.80L24.72 10.80Q30.16 10.72 31.72 8.48L31.72 8.48L31.72 8.48Q33.28 6.24 34.80-2.48L34.80-2.48L36.96-15.44L32.88-15.44L33.04-16.88L37.20-16.88L42.40-46.72L42.40-46.72Q26-45.36 17.12-39.72L17.12-39.72L17.12-39.72Q8.24-34.08 8.24-24.88zM71.28-39.12L71.28-39.12L71.28-39.12Q71.28-47.12 53.12-47.12L53.12-47.12L53.12-47.12Q49.84-24.48 48.48-16.88L48.48-16.88L58.96-16.88L58.96-16.88Q60.16-19.92 63.36-24.04L63.36-24.04L63.36-24.04Q66.56-28.16 68.92-31.92L68.92-31.92L68.92-31.92Q71.28-35.68 71.28-39.12" fill="#000000" stroke="none" stroke-width="none" transform="translate(-291.3199768066406,19.230172140938897)" style="fill: rgb(0, 0, 0);"></path></g><g class="path" style="transform: scale(0.91); transform-origin: -199.36px 4.03017px; animation: 1s linear -0.565714s infinite normal forwards running breath-adb716ac-c6d7-42f6-8c3a-6ae5def9395a;"><path d="M79.28-29.52L79.28-29.52L79.28-29.52Q77.36-29.52 75.28-27.28L75.28-27.28L74.08-28.24L74.08-28.24Q74.64-29.36 76.56-30.24L76.56-30.24L76.56-30.24Q78.48-31.12 80.80-31.12L80.80-31.12L80.80-31.12Q88.08-31.12 88.08-24.56L88.08-24.56L88.08-24.56Q88.08-21.76 86.64-14.56L86.64-14.56L86.64-14.56Q85.20-7.36 85.20-5.12L85.20-5.12L85.20-5.12Q85.20-1.68 88.48-1.68L88.48-1.68L88.48-1.68Q90.80-1.68 93.00-4.40L93.00-4.40L93.00-4.40Q95.20-7.12 96.80-11.92L96.80-11.92L100.16-30.40L100.16-30.40Q106.08-30.40 108.80-30.88L108.80-30.88L109.84-31.12L104.48-0.88L104.48-0.88Q106.88-1.12 108.48-3.12L108.48-3.12L109.68-2.16L109.68-2.16Q107.28 0.72 103.68 0.72L103.68 0.72L103.68 0.72Q100.08 0.72 98.08-1.04L98.08-1.04L98.08-1.04Q96.08-2.80 96.00-6L96.00-6L96.00-6Q92.64 0.72 86.08 0.72L86.08 0.72L86.08 0.72Q81.36 0.72 78.72-1.96L78.72-1.96L78.72-1.96Q76.08-4.64 76.08-9.36L76.08-9.36L76.08-9.36Q76.08-11.84 77.60-18.92L77.60-18.92L77.60-18.92Q79.12-26 79.28-29.52" fill="#000000" stroke="none" stroke-width="none" transform="translate(-291.3199768066406,19.230172140938897)" style="fill: rgb(0, 0, 0);"></path></g><g class="path" style="transform: scale(0.91); transform-origin: -164.52px -1.88983px; animation: 1s linear -0.518571s infinite normal forwards running breath-adb716ac-c6d7-42f6-8c3a-6ae5def9395a;"><path d="M115.12-30.40L119.20-30.40L121.36-42.24L121.36-42.24Q127.28-42.24 130.16-42.72L130.16-42.72L131.20-42.96L131.20-42.96Q130.08-37.36 128.72-30.40L128.72-30.40L138.64-30.40L138.48-28.96L128.48-28.96L128.48-28.96Q124.48-8.32 124.48-4.08L124.48-4.08L124.48-4.08Q124.48-1.52 127.20-1.52L127.20-1.52L127.20-1.52Q129.92-1.52 132.16-4.96L132.16-4.96L132.16-4.96Q134.40-8.40 135.36-12.40L135.36-12.40L136.80-11.92L136.80-11.92Q133.84 0.72 124.56 0.72L124.56 0.72L124.56 0.72Q120.72 0.72 118.16-1.40L118.16-1.40L118.16-1.40Q115.60-3.52 115.60-7.32L115.60-7.32L115.60-7.32Q115.60-11.12 118.88-28.96L118.88-28.96L114.96-28.96L115.12-30.40" fill="#000000" stroke="none" stroke-width="none" transform="translate(-291.3199768066406,19.230172140938897)" style="fill: rgb(0, 0, 0);"></path></g><g class="path" style="transform: scale(0.91); transform-origin: -133.68px 4.03017px; animation: 1s linear -0.471429s infinite normal forwards running breath-adb716ac-c6d7-42f6-8c3a-6ae5def9395a;"><path d="M144.96-29.52L144.96-29.52L144.96-29.52Q143.04-29.52 140.96-27.28L140.96-27.28L139.76-28.24L139.76-28.24Q140.32-29.36 142.24-30.24L142.24-30.24L142.24-30.24Q144.16-31.12 146.48-31.12L146.48-31.12L146.48-31.12Q153.76-31.12 153.76-24.56L153.76-24.56L153.76-24.56Q153.76-21.76 152.32-14.56L152.32-14.56L152.32-14.56Q150.88-7.36 150.88-5.12L150.88-5.12L150.88-5.12Q150.88-1.68 154.16-1.68L154.16-1.68L154.16-1.68Q156.48-1.68 158.68-4.40L158.68-4.40L158.68-4.40Q160.88-7.12 162.48-11.92L162.48-11.92L165.84-30.40L165.84-30.40Q171.76-30.40 174.48-30.88L174.48-30.88L175.52-31.12L170.16-0.88L170.16-0.88Q172.56-1.12 174.16-3.12L174.16-3.12L175.36-2.16L175.36-2.16Q172.96 0.72 169.36 0.72L169.36 0.72L169.36 0.72Q165.76 0.72 163.76-1.04L163.76-1.04L163.76-1.04Q161.76-2.80 161.68-6L161.68-6L161.68-6Q158.32 0.72 151.76 0.72L151.76 0.72L151.76 0.72Q147.04 0.72 144.40-1.96L144.40-1.96L144.40-1.96Q141.76-4.64 141.76-9.36L141.76-9.36L141.76-9.36Q141.76-11.84 143.28-18.92L143.28-18.92L143.28-18.92Q144.80-26 144.96-29.52" fill="#000000" stroke="none" stroke-width="none" transform="translate(-291.3199768066406,19.230172140938897)" style="fill: rgb(0, 0, 0);"></path></g><g class="path" style="transform: scale(0.91); transform-origin: -96.36px 3.67017px; animation: 1s linear -0.424286s infinite normal forwards running breath-adb716ac-c6d7-42f6-8c3a-6ae5def9395a;"><path d="M181.60-27.28L180.40-28.24L180.40-28.24Q182.80-31.12 186.44-31.12L186.44-31.12L186.44-31.12Q190.08-31.12 192.08-29.28L192.08-29.28L192.08-29.28Q194.08-27.44 194.08-24.08L194.08-24.08L194.08-23.60L194.08-23.60Q197.68-31.12 203.44-31.12L203.44-31.12L203.44-31.12Q209.60-31.12 209.60-24.72L209.60-24.72L209.60-24.72Q209.60-22.08 207.84-19.12L207.84-19.12L207.84-19.12Q206.08-16.16 204.32-13.48L204.32-13.48L204.32-13.48Q202.56-10.80 202.56-8.72L202.56-8.72L200.64-8.72L200.64-8.72Q200.64-11.68 204.08-16.72L204.08-16.72L204.08-16.72Q207.52-21.76 207.52-24.52L207.52-24.52L207.52-24.52Q207.52-27.28 206.44-28.28L206.44-28.28L206.44-28.28Q205.36-29.28 203.24-29.28L203.24-29.28L203.24-29.28Q201.12-29.28 199.08-27.44L199.08-27.44L199.08-27.44Q197.04-25.60 195.68-22.80L195.68-22.80L195.68-22.80Q193.52-18.64 192.80-16L192.80-16L192.80-15.92L189.92 0L180.32 0L185.60-29.52L185.60-29.52Q183.20-29.28 181.60-27.28L181.60-27.28" fill="#000000" stroke="none" stroke-width="none" transform="translate(-291.3199768066406,19.230172140938897)" style="fill: rgb(0, 0, 0);"></path></g><g class="path" style="transform: scale(0.91); transform-origin: -66.28px 4.03017px; animation: 1s linear -0.377143s infinite normal forwards running breath-adb716ac-c6d7-42f6-8c3a-6ae5def9395a;"><path d="M228.56-31.12L228.56-31.12L228.56-31.12Q238.72-31.12 238.72-23.04L238.72-23.04L238.72-23.04Q238.72-18 233.96-15.40L233.96-15.40L233.96-15.40Q229.20-12.80 220.40-12.72L220.40-12.72L220.40-12.72Q220.24-9.84 220.24-8.16L220.24-8.16L220.24-8.16Q220.24-4.56 221.88-2.84L221.88-2.84L221.88-2.84Q223.52-1.12 226-1.12L226-1.12L226-1.12Q228.48-1.12 230.52-2.08L230.52-2.08L230.52-2.08Q232.56-3.04 233.76-4.36L233.76-4.36L233.76-4.36Q234.96-5.68 235.84-7.12L235.84-7.12L235.84-7.12Q237.44-9.76 237.44-10.48L237.44-10.48L238.88-9.84L238.88-9.84Q238.64-8.56 237.44-6.44L237.44-6.44L237.44-6.44Q236.24-4.32 234.80-2.96L234.80-2.96L234.80-2.96Q233.36-1.60 230.56-0.44L230.56-0.44L230.56-0.44Q227.76 0.72 224.32 0.72L224.32 0.72L224.32 0.72Q217.84 0.72 214.52-2.36L214.52-2.36L214.52-2.36Q211.20-5.44 211.20-10.80L211.20-10.80L211.20-10.80Q211.20-20.32 215.92-25.72L215.92-25.72L215.92-25.72Q220.64-31.12 228.56-31.12zM236.72-23.04L236.72-23.04Q236.72-25.68 235.16-27.40L235.16-27.40L235.16-27.40Q233.60-29.12 230.52-29.12L230.52-29.12L230.52-29.12Q227.44-29.12 224.52-25.44L224.52-25.44L224.52-25.44Q221.60-21.76 220.64-14.56L220.64-14.56L220.64-14.56Q236.72-14.64 236.72-23.04L236.72-23.04" fill="#000000" stroke="none" stroke-width="none" transform="translate(-291.3199768066406,19.230172140938897)" style="fill: rgb(0, 0, 0);"></path></g><g class="path" style="transform: scale(0.91); transform-origin: -4.99997px -1.72983px; animation: 1s linear -0.33s infinite normal forwards running breath-adb716ac-c6d7-42f6-8c3a-6ae5def9395a;"><path d="M272.16-10.88L272.16-10.88L272.16-10.88Q272.16 1.12 279.92 4.96L279.92 4.96L279.92 4.96Q281.84 5.20 285 5.20L285 5.20L285 5.20Q288.16 5.20 291.68 4L291.68 4L291.68 4Q295.20 2.80 297.12 1.04L297.12 1.04L297.12 1.04Q301.20-2.72 302.24-5.44L302.24-5.44L302.64-6.64L304.24-6L304.24-6Q303.68-4.16 302.08-1.76L302.08-1.76L302.08-1.76Q300.48 0.64 298.44 2.32L298.44 2.32L298.44 2.32Q296.40 4 292.52 5.40L292.52 5.40L292.52 5.40Q288.64 6.80 283.92 6.80L283.92 6.80L283.92 6.80Q273.84 6.80 268.28 0.96L268.28 0.96L268.28 0.96Q262.72-4.88 262.72-15.52L262.72-15.52L262.72-15.52Q262.72-30 272.08-39.36L272.08-39.36L272.08-39.36Q281.44-48.72 296.64-48.72L296.64-48.72L296.64-48.72Q303.68-48.72 306.80-46.20L306.80-46.20L306.80-46.20Q309.92-43.68 309.92-38.32L309.92-38.32L309.92-38.32Q309.92-34.72 306.40-29.44L306.40-29.44L306.40-29.44Q303.20-24.32 303.20-21.44L303.20-21.44L301.44-21.44L301.44-21.44Q301.44-23.04 302.08-24.88L302.08-24.88L302.08-24.88Q302.72-26.72 303.20-27.52L303.20-27.52L303.20-27.52Q303.68-28.32 304.96-30.40L304.96-30.40L304.96-30.40Q308.08-35.12 308.08-38.16L308.08-38.16L308.08-38.16Q308.08-44.56 302.80-46.24L302.80-46.24L302.80-46.24Q300.32-47.04 297.60-47.04L297.60-47.04L297.60-47.04Q294.88-47.04 291.84-46.72L291.84-46.72L291.84-46.72Q289.04-45.84 286.52-44.44L286.52-44.44L286.52-44.44Q284-43.04 281.28-40.20L281.28-40.20L281.28-40.20Q278.56-37.36 276.64-33.60L276.64-33.60L276.64-33.60Q274.72-29.84 273.44-23.96L273.44-23.96L273.44-23.96Q272.16-18.08 272.16-10.88" fill="#000000" stroke="none" stroke-width="none" transform="translate(-291.3199768066406,19.230172140938897)" style="fill: rgb(0, 0, 0);"></path></g><g class="path" style="transform: scale(0.91); transform-origin: 35.96px 4.03017px; animation: 1s linear -0.282857s infinite normal forwards running breath-adb716ac-c6d7-42f6-8c3a-6ae5def9395a;"><path d="M324.16 0.72L324.16 0.72Q318 0.72 314.80-2.36L314.80-2.36L314.80-2.36Q311.60-5.44 311.60-10.12L311.60-10.12L311.60-10.12Q311.60-14.80 312.44-18.12L312.44-18.12L312.44-18.12Q313.28-21.44 315.20-24.52L315.20-24.52L315.20-24.52Q317.12-27.60 321-29.36L321-29.36L321-29.36Q324.88-31.12 330.68-31.12L330.68-31.12L330.68-31.12Q336.48-31.12 339.72-28.04L339.72-28.04L339.72-28.04Q342.96-24.96 342.96-19.60L342.96-19.60L342.96-19.60Q342.96-10.48 338.12-4.88L338.12-4.88L338.12-4.88Q333.28 0.72 324.16 0.72L324.16 0.72zM320.64-7.52L320.64-7.52L320.64-7.52Q320.64-1.12 324.36-1.12L324.36-1.12L324.36-1.12Q328.08-1.12 331-7.56L331-7.56L331-7.56Q333.92-14 333.92-22.88L333.92-22.88L333.92-22.88Q333.92-29.60 330.28-29.60L330.28-29.60L330.28-29.60Q326.64-29.60 323.64-23.48L323.64-23.48L323.64-23.48Q320.64-17.36 320.64-7.52" fill="#000000" stroke="none" stroke-width="none" transform="translate(-291.3199768066406,19.230172140938897)" style="fill: rgb(0, 0, 0);"></path></g><g class="path" style="transform: scale(0.91); transform-origin: 83.72px 4.03017px; animation: 1s linear -0.235714s infinite normal forwards running breath-adb716ac-c6d7-42f6-8c3a-6ae5def9395a;"><path d="M377.36-0.88L377.36-0.88L377.36-0.88Q379.28-0.88 381.36-3.12L381.36-3.12L382.56-2.16L382.56-2.16Q382-1.04 380.08-0.16L380.08-0.16L380.08-0.16Q378.16 0.72 375.84 0.72L375.84 0.72L375.84 0.72Q368.56 0.72 368.56-5.84L368.56-5.84L368.56-5.84Q368.56-8.64 370.00-15.84L370.00-15.84L370.00-15.84Q371.44-23.04 371.44-25.28L371.44-25.28L371.44-25.28Q371.44-28.72 368.16-28.72L368.16-28.72L368.16-28.72Q363.20-28.72 359.84-16L359.84-16L356.96 0L347.36 0L352.64-29.52L352.64-29.52Q350.24-29.28 348.64-27.28L348.64-27.28L347.44-28.24L347.44-28.24Q349.84-31.12 353.48-31.12L353.48-31.12L353.48-31.12Q357.12-31.12 359.12-29.28L359.12-29.28L359.12-29.28Q361.12-27.44 361.12-24.08L361.12-24.08L361.12-23.84L361.12-23.84Q364.24-31.12 370.56-31.12L370.56-31.12L370.56-31.12Q375.04-31.12 377.64-28.68L377.64-28.68L377.64-28.68Q380.24-26.24 380.48-21.84L380.48-21.84L380.48-21.84Q382-26.24 384.32-28.68L384.32-28.68L384.32-28.68Q386.64-31.12 391.04-31.12L391.04-31.12L391.04-31.12Q395.44-31.12 398.08-28.44L398.08-28.44L398.08-28.44Q400.72-25.76 400.72-21.04L400.72-21.04L400.72-21.04Q400.72-18.56 399.20-11.48L399.20-11.48L399.20-11.48Q397.68-4.40 397.52-0.88L397.52-0.88L397.52-0.88Q399.44-0.88 401.52-3.12L401.52-3.12L402.72-2.16L402.72-2.16Q402.16-1.04 400.24-0.16L400.24-0.16L400.24-0.16Q398.32 0.72 396 0.72L396 0.72L396 0.72Q388.72 0.72 388.72-5.84L388.72-5.84L388.72-5.84Q388.72-8.64 390.16-15.84L390.16-15.84L390.16-15.84Q391.60-23.04 391.60-25.28L391.60-25.28L391.60-25.28Q391.60-28.72 388.32-28.72L388.32-28.72L388.32-28.72Q382.56-28.72 379.04-11.60L379.04-11.60L379.04-11.60Q377.52-4.32 377.36-0.88" fill="#000000" stroke="none" stroke-width="none" transform="translate(-291.3199768066406,19.230172140938897)" style="fill: rgb(0, 0, 0);"></path></g><g class="path" style="transform: scale(0.91); transform-origin: 143.32px 4.03017px; animation: 1s linear -0.188571s infinite normal forwards running breath-adb716ac-c6d7-42f6-8c3a-6ae5def9395a;"><path d="M436.96-0.88L436.96-0.88L436.96-0.88Q438.88-0.88 440.96-3.12L440.96-3.12L442.16-2.16L442.16-2.16Q441.60-1.04 439.68-0.16L439.68-0.16L439.68-0.16Q437.76 0.72 435.44 0.72L435.44 0.72L435.44 0.72Q428.16 0.72 428.16-5.84L428.16-5.84L428.16-5.84Q428.16-8.64 429.60-15.84L429.60-15.84L429.60-15.84Q431.04-23.04 431.04-25.28L431.04-25.28L431.04-25.28Q431.04-28.72 427.76-28.72L427.76-28.72L427.76-28.72Q422.80-28.72 419.44-16L419.44-16L416.56 0L406.96 0L412.24-29.52L412.24-29.52Q409.84-29.28 408.24-27.28L408.24-27.28L407.04-28.24L407.04-28.24Q409.44-31.12 413.08-31.12L413.08-31.12L413.08-31.12Q416.72-31.12 418.72-29.28L418.72-29.28L418.72-29.28Q420.72-27.44 420.72-24.08L420.72-24.08L420.72-23.84L420.72-23.84Q423.84-31.12 430.16-31.12L430.16-31.12L430.16-31.12Q434.64-31.12 437.24-28.68L437.24-28.68L437.24-28.68Q439.84-26.24 440.08-21.84L440.08-21.84L440.08-21.84Q441.60-26.24 443.92-28.68L443.92-28.68L443.92-28.68Q446.24-31.12 450.64-31.12L450.64-31.12L450.64-31.12Q455.04-31.12 457.68-28.44L457.68-28.44L457.68-28.44Q460.32-25.76 460.32-21.04L460.32-21.04L460.32-21.04Q460.32-18.56 458.80-11.48L458.80-11.48L458.80-11.48Q457.28-4.40 457.12-0.88L457.12-0.88L457.12-0.88Q459.04-0.88 461.12-3.12L461.12-3.12L462.32-2.16L462.32-2.16Q461.76-1.04 459.84-0.16L459.84-0.16L459.84-0.16Q457.92 0.72 455.60 0.72L455.60 0.72L455.60 0.72Q448.32 0.72 448.32-5.84L448.32-5.84L448.32-5.84Q448.32-8.64 449.76-15.84L449.76-15.84L449.76-15.84Q451.20-23.04 451.20-25.28L451.20-25.28L451.20-25.28Q451.20-28.72 447.92-28.72L447.92-28.72L447.92-28.72Q442.16-28.72 438.64-11.60L438.64-11.60L438.64-11.60Q437.12-4.32 436.96-0.88" fill="#000000" stroke="none" stroke-width="none" transform="translate(-291.3199768066406,19.230172140938897)" style="fill: rgb(0, 0, 0);"></path></g><g class="path" style="transform: scale(0.91); transform-origin: 188.52px 4.03017px; animation: 1s linear -0.141429s infinite normal forwards running breath-adb716ac-c6d7-42f6-8c3a-6ae5def9395a;"><path d="M483.36-31.12L483.36-31.12L483.36-31.12Q493.52-31.12 493.52-23.04L493.52-23.04L493.52-23.04Q493.52-18 488.76-15.40L488.76-15.40L488.76-15.40Q484-12.80 475.20-12.72L475.20-12.72L475.20-12.72Q475.04-9.84 475.04-8.16L475.04-8.16L475.04-8.16Q475.04-4.56 476.68-2.84L476.68-2.84L476.68-2.84Q478.32-1.12 480.80-1.12L480.80-1.12L480.80-1.12Q483.28-1.12 485.32-2.08L485.32-2.08L485.32-2.08Q487.36-3.04 488.56-4.36L488.56-4.36L488.56-4.36Q489.76-5.68 490.64-7.12L490.64-7.12L490.64-7.12Q492.24-9.76 492.24-10.48L492.24-10.48L493.68-9.84L493.68-9.84Q493.44-8.56 492.24-6.44L492.24-6.44L492.24-6.44Q491.04-4.32 489.60-2.96L489.60-2.96L489.60-2.96Q488.16-1.60 485.36-0.44L485.36-0.44L485.36-0.44Q482.56 0.72 479.12 0.72L479.12 0.72L479.12 0.72Q472.64 0.72 469.32-2.36L469.32-2.36L469.32-2.36Q466-5.44 466-10.80L466-10.80L466-10.80Q466-20.32 470.72-25.72L470.72-25.72L470.72-25.72Q475.44-31.12 483.36-31.12zM491.52-23.04L491.52-23.04Q491.52-25.68 489.96-27.40L489.96-27.40L489.96-27.40Q488.40-29.12 485.32-29.12L485.32-29.12L485.32-29.12Q482.24-29.12 479.32-25.44L479.32-25.44L479.32-25.44Q476.40-21.76 475.44-14.56L475.44-14.56L475.44-14.56Q491.52-14.64 491.52-23.04L491.52-23.04" fill="#000000" stroke="none" stroke-width="none" transform="translate(-291.3199768066406,19.230172140938897)" style="fill: rgb(0, 0, 0);"></path></g><g class="path" style="transform: scale(0.91); transform-origin: 221.56px 3.67017px; animation: 1s linear -0.0942857s infinite normal forwards running breath-adb716ac-c6d7-42f6-8c3a-6ae5def9395a;"><path d="M499.52-27.28L498.32-28.24L498.32-28.24Q500.72-31.12 504.36-31.12L504.36-31.12L504.36-31.12Q508-31.12 510-29.28L510-29.28L510-29.28Q512-27.44 512-24.08L512-24.08L512-23.60L512-23.60Q515.60-31.12 521.36-31.12L521.36-31.12L521.36-31.12Q527.52-31.12 527.52-24.72L527.52-24.72L527.52-24.72Q527.52-22.08 525.76-19.12L525.76-19.12L525.76-19.12Q524-16.16 522.24-13.48L522.24-13.48L522.24-13.48Q520.48-10.80 520.48-8.72L520.48-8.72L518.56-8.72L518.56-8.72Q518.56-11.68 522-16.72L522-16.72L522-16.72Q525.44-21.76 525.44-24.52L525.44-24.52L525.44-24.52Q525.44-27.28 524.36-28.28L524.36-28.28L524.36-28.28Q523.28-29.28 521.16-29.28L521.16-29.28L521.16-29.28Q519.04-29.28 517-27.44L517-27.44L517-27.44Q514.96-25.60 513.60-22.80L513.60-22.80L513.60-22.80Q511.44-18.64 510.72-16L510.72-16L510.72-15.92L507.84 0L498.24 0L503.52-29.52L503.52-29.52Q501.12-29.28 499.52-27.28L499.52-27.28" fill="#000000" stroke="none" stroke-width="none" transform="translate(-291.3199768066406,19.230172140938897)" style="fill: rgb(0, 0, 0);"></path></g><g class="path" style="transform: scale(0.91); transform-origin: 252.36px 4.03017px; animation: 1s linear -0.0471429s infinite normal forwards running breath-adb716ac-c6d7-42f6-8c3a-6ae5def9395a;"><path d="M548.48-16.72L548.48-16.72L548.48-16.72Q546.80-18.40 546.80-20.80L546.80-20.80L546.80-20.80Q546.80-23.20 548.48-24.92L548.48-24.92L548.48-24.92Q550.16-26.64 552.56-26.64L552.56-26.64L552.56-26.64Q553.28-26.64 554.40-26.32L554.40-26.32L554.40-26.32Q552.88-29.12 548.72-29.12L548.72-29.12L548.72-29.12Q544.56-29.12 541.36-23.84L541.36-23.84L541.36-23.84Q538.16-18.56 538.16-8.16L538.16-8.16L538.16-8.16Q538.16-4.56 539.80-2.84L539.80-2.84L539.80-2.84Q541.44-1.12 543.92-1.12L543.92-1.12L543.92-1.12Q546.40-1.12 548.44-2.08L548.44-2.08L548.44-2.08Q550.48-3.04 551.68-4.36L551.68-4.36L551.68-4.36Q552.88-5.68 553.76-7.12L553.76-7.12L553.76-7.12Q555.36-9.76 555.36-10.48L555.36-10.48L556.80-9.84L556.80-9.84Q556.56-8.56 555.36-6.44L555.36-6.44L555.36-6.44Q554.16-4.32 552.72-2.96L552.72-2.96L552.72-2.96Q551.28-1.60 548.48-0.44L548.48-0.44L548.48-0.44Q545.68 0.72 542.24 0.72L542.24 0.72L542.24 0.72Q535.76 0.72 532.44-2.36L532.44-2.36L532.44-2.36Q529.12-5.44 529.12-10.80L529.12-10.80L529.12-10.80Q529.12-20.32 533.88-25.72L533.88-25.72L533.88-25.72Q538.64-31.12 546.80-31.12L546.80-31.12L546.80-31.12Q552.32-31.12 555.28-28.32L555.28-28.32L555.28-28.32Q558.24-25.52 558.24-20.96L558.24-20.96L558.24-20.96Q558.24-18.08 556.52-16.56L556.52-16.56L556.52-16.56Q554.80-15.04 552.48-15.04L552.48-15.04L552.48-15.04Q550.16-15.04 548.48-16.72" fill="#000000" stroke="none" stroke-width="none" transform="translate(-291.3199768066406,19.230172140938897)" style="fill: rgb(0, 0, 0);"></path></g><g class="path" style="transform: scale(0.91); transform-origin: 284.04px 4.03017px; animation: 1s linear 0s infinite normal forwards running breath-adb716ac-c6d7-42f6-8c3a-6ae5def9395a;"><path d="M578.88-31.12L578.88-31.12L578.88-31.12Q589.04-31.12 589.04-23.04L589.04-23.04L589.04-23.04Q589.04-18 584.28-15.40L584.28-15.40L584.28-15.40Q579.52-12.80 570.72-12.72L570.72-12.72L570.72-12.72Q570.56-9.84 570.56-8.16L570.56-8.16L570.56-8.16Q570.56-4.56 572.20-2.84L572.20-2.84L572.20-2.84Q573.84-1.12 576.32-1.12L576.32-1.12L576.32-1.12Q578.80-1.12 580.84-2.08L580.84-2.08L580.84-2.08Q582.88-3.04 584.08-4.36L584.08-4.36L584.08-4.36Q585.28-5.68 586.16-7.12L586.16-7.12L586.16-7.12Q587.76-9.76 587.76-10.48L587.76-10.48L589.20-9.84L589.20-9.84Q588.96-8.56 587.76-6.44L587.76-6.44L587.76-6.44Q586.56-4.32 585.12-2.96L585.12-2.96L585.12-2.96Q583.68-1.60 580.88-0.44L580.88-0.44L580.88-0.44Q578.08 0.72 574.64 0.72L574.64 0.72L574.64 0.72Q568.16 0.72 564.84-2.36L564.84-2.36L564.84-2.36Q561.52-5.44 561.52-10.80L561.52-10.80L561.52-10.80Q561.52-20.32 566.24-25.72L566.24-25.72L566.24-25.72Q570.96-31.12 578.88-31.12zM587.04-23.04L587.04-23.04Q587.04-25.68 585.48-27.40L585.48-27.40L585.48-27.40Q583.92-29.12 580.84-29.12L580.84-29.12L580.84-29.12Q577.76-29.12 574.84-25.44L574.84-25.44L574.84-25.44Q571.92-21.76 570.96-14.56L570.96-14.56L570.96-14.56Q587.04-14.64 587.04-23.04L587.04-23.04" fill="#000000" stroke="none" stroke-width="none" transform="translate(-291.3199768066406,19.230172140938897)" style="fill: rgb(0, 0, 0);"></path></g></g>
</g>
</g>
<style id="breath-adb716ac-c6d7-42f6-8c3a-6ae5def9395a" data-anikit="">@keyframes breath-adb716ac-c6d7-42f6-8c3a-6ae5def9395a
{
  0% {
    animation-timing-function: cubic-bezier(0.9647,0.2413,-0.0705,0.7911);
    transform: scale(0.9099999999999999);
  }
  51% {
    animation-timing-function: cubic-bezier(0.9226,0.2631,-0.0308,0.7628);
    transform: scale(1.02994);
  }
  100% {
    transform: scale(0.9099999999999999);
  }
}</style></svg>